<?xml version="1.0" encoding="utf-8"?>
<!-- Generator: Adobe Illustrator 19.1.1, SVG Export Plug-In . SVG Version: 6.00 Build 0)  -->
<svg version="1.1" id="Layer_1" xmlns="http://www.w3.org/2000/svg" xmlns:xlink="http://www.w3.org/1999/xlink" x="0px" y="0px"
	 viewBox="-184 310.4 241.1 173.6" style="enable-background:new -184 310.4 241.1 173.6;" xml:space="preserve">
<style type="text/css">
	.st0{fill:#252525;}
	.st1{fill:#FFFFFF;}
	.st2{fill:#010101;}
	.st3{fill:#EA2534;}
</style>
<g>
	<path class="st0" d="M-82.7,475.1c42.4-24.7-35.6-14.8-19.7-41.8h-19.7c-1.7,0-3.3,1.1-3.9,2.7C-133.6,458.2-65.7,453.8-82.7,475.1
		z"/>
</g>
<g>
	<path class="st0" d="M16.2,475.1c42.4-24.7-35.6-14.8-19.7-41.8h-19.7c-1.7,0-3.3,1.1-3.9,2.7C-34.8,458.2,33.1,453.8,16.2,475.1z"
		/>
</g>
<g>
	<path class="st0" d="M-1.1,408.8C0.6,421.5-1,431.4-1,431.4c0,1.5-1.1,2.4-2.5,2.5H-21c-1.4,0.1-2.7-0.9-2.9-2.3l-0.8-4.9"/>
</g>
<g>
	<path class="st0" d="M-122.6,408.6c-1.7,12.8-0.1,22.7-0.1,22.7c0,1.5,1.1,2.4,2.5,2.5h17.5c1.4,0.1,2.7-0.9,2.9-2.3l0.8-4.9"/>
</g>
<g>
	<path class="st1" d="M-0.5,398.4c0-11-4.5-12-4.5-12c-7.5-10.3-16.2-9.6-16.2-9.6l-40.7,0.2l-40.7-0.2c0,0-8.6-0.8-16.2,9.6
		c0,0-4.5,1-4.5,12c0,2.9-1.4,22.5,13.6,28.3h95.5C0.9,420.8-0.5,401.2-0.5,398.4z"/>
	<path class="st0" d="M-14.1,427.2l-95.8,0c-6.6-2.5-14.3-9.5-13.9-28.1c0-0.3,0-0.5,0-0.7c0-10.1,3.8-12.1,4.7-12.4
		c7.7-10.4,16.2-9.7,16.6-9.7l40.7,0.2l40.7-0.2c0.3,0,9-0.6,16.5,9.7c0.9,0.3,4.7,2.3,4.7,12.4c0,0.2,0,0.4,0,0.7
		C0.4,417.6-7.4,424.6-14.1,427.2L-14.1,427.2z M-109.6,426.2h95.3C-8,423.7-0.6,417-1,399.1c0-0.3,0-0.5,0-0.7
		c0-10.4-4.1-11.5-4.1-11.5l-0.2,0l-0.1-0.1c-7.3-10-15.7-9.4-15.8-9.4l-40.7,0.2l-40.7-0.2c-0.1,0-8.5-0.6-15.8,9.4l-0.1,0.2
		l-0.2,0c0,0-4.1,1.1-4.1,11.5c0,0.2,0,0.4,0,0.7C-123.2,417-115.9,423.7-109.6,426.2z"/>
</g>
<g>
	<g>
		<path class="st2" d="M-61.8,384.1c-1.8,0-3.1-0.9-3.1-2.1s1.3-2.1,3.1-2.1c1.8,0,3.1,0.9,3.1,2.1
			C-58.7,383.2-60.1,384.1-61.8,384.1z M-61.8,380.9c-1.3,0-2.1,0.6-2.1,1.1s0.8,1.1,2.1,1.1c1.2,0,2.1-0.6,2.1-1.1
			C-59.7,381.5-60.5,380.9-61.8,380.9z"/>
	</g>
</g>
<g>
	<path class="st0" d="M-29.2,396.9h-66.2v-12.3h66.2V396.9z M-94.4,395.9h64.2v-10.3h-64.2V395.9z"/>
</g>
<g>
	<path class="st1" d="M-109.9,396.5H-94c2.9,0,5.2-2.3,5.2-5.2l0,0c0-4.7-2.7-6.4-6-6.4l-10.3,0.4c-4.1,0-8.5,3.4-8.5,7.5l0,0
		C-113.7,394.8-112,396.5-109.9,396.5z"/>
	<path class="st0" d="M-94,397h-15.9c-1.2,0-2.3-0.5-3.1-1.3c-0.8-0.8-1.2-1.8-1.1-2.9c0-4.5,4.8-8,9-8l10.3-0.4c0,0,0,0,0,0
		c4.1,0,6.5,2.5,6.5,6.9C-88.3,394.5-90.8,397-94,397z M-94.8,385.4l-10.3,0.4c-3.7,0-8,3.1-8,7c0,0.8,0.3,1.6,0.8,2.2
		c0.6,0.6,1.5,1,2.4,1H-94c2.6,0,4.7-2.1,4.7-4.7C-89.3,386.4-92.3,385.4-94.8,385.4z"/>
</g>
<g>
	<circle class="st3" cx="-94.9" cy="390.6" r="4.5"/>
	<path class="st0" d="M-94.9,395.6c-2.8,0-5-2.2-5-5s2.2-5,5-5s5,2.2,5,5S-92.1,395.6-94.9,395.6z M-94.9,386.6c-2.2,0-4,1.8-4,4
		s1.8,4,4,4s4-1.8,4-4S-92.7,386.6-94.9,386.6z"/>
</g>
<g>
	<circle class="st3" cx="-107.1" cy="391.2" r="3.5"/>
	<path class="st0" d="M-107.1,395.2c-2.2,0-4-1.8-4-4s1.8-4,4-4s4,1.8,4,4S-104.9,395.2-107.1,395.2z M-107.1,388.2
		c-1.7,0-3,1.3-3,3s1.3,3,3,3s3-1.3,3-3S-105.4,388.2-107.1,388.2z"/>
</g>
<g>
	<rect x="-107.1" y="387.2" class="st0" width="8.7" height="1"/>
</g>
<g>
	<rect x="-105.8" y="394" class="st0" width="8.7" height="1"/>
</g>
<g>
	<path class="st0" d="M-116.7,384.3l-0.2-0.1c-1,0.2-2.4-0.1-3.6-0.7c-1.4-0.7-2.4-1.6-2.6-2.7c-0.2-1.2,0.2-2.5,1.2-3.4
		c1.9-1.8,5.2-2.2,9.1-1.3c0.9,0.2,1.4,2,1.7,3l0.1,0.4l-0.3,0.2c-1.5,0.9-3.6,2.8-4.5,3.8L-116.7,384.3z M-116.6,376.7
		c-2.7,0-4.1,1-4.6,1.5c-0.8,0.7-1.1,1.6-0.9,2.5c0.1,0.7,0.9,1.4,2.1,2c1.1,0.5,2.2,0.7,3,0.6c0.9-1.1,3.6-3.3,4.8-4.2
		c-0.3-0.9-0.7-1.8-0.9-1.9C-114.4,376.8-115.6,376.7-116.6,376.7z"/>
</g>
<g>
	<path class="st1" d="M-13.8,396.5h-15.9c-2.9,0-5.2-2.3-5.2-5.2l0,0c0-4.7,2.7-6.4,6-6.4l10.3,0.4c4.1,0,8.5,3.4,8.5,7.5l0,0
		C-10,394.8-11.7,396.5-13.8,396.5z"/>
	<path class="st0" d="M-13.8,397h-15.9c-3.2,0-5.7-2.5-5.7-5.7c0-4.4,2.4-6.9,6.5-6.9l10.3,0.4c4.1,0,9,3.5,9,8
		c0.1,1-0.3,2.1-1.1,2.9C-11.5,396.5-12.6,397-13.8,397z M-28.9,385.4c-2.5,0-5.5,1-5.5,5.9c0,2.6,2.1,4.7,4.7,4.7h15.9
		c0.9,0,1.8-0.4,2.4-1c0.6-0.6,0.9-1.4,0.8-2.2c0-4-4.3-7-8-7L-28.9,385.4z"/>
</g>
<g>
	<path class="st3" d="M-25.5,387.7c-0.8-0.9-2-1.5-3.3-1.5c-2.5,0-4.5,2-4.5,4.5s2,4.5,4.5,4.5c0.6,0,1.2-0.1,1.7-0.3
		c1.6-0.7,2.7-2.3,2.7-4.1C-24.3,389.5-24.8,388.5-25.5,387.7z"/>
	<path class="st0" d="M-28.8,395.7c-2.8,0-5-2.2-5-5s2.2-5,5-5c1.4,0,2.7,0.6,3.7,1.7l0,0c0.9,1.1,1.3,2.2,1.2,3.5
		c0,1.9-1.2,3.7-3,4.5C-27.5,395.6-28.1,395.7-28.8,395.7z M-28.8,386.7c-2.2,0-4,1.8-4,4s1.8,4,4,4c0.6,0,1.1-0.1,1.5-0.3
		c1.4-0.6,2.4-2.1,2.4-3.6c0.1-1-0.2-1.9-1-2.8C-26.6,387.2-27.7,386.7-28.8,386.7z"/>
</g>
<g>
	<circle class="st3" cx="-16.6" cy="391.2" r="3.5"/>
	<path class="st0" d="M-16.6,395.2c-2.2,0-4-1.8-4-4s1.8-4,4-4s4,1.8,4,4S-14.4,395.2-16.6,395.2z M-16.6,388.2c-1.7,0-3,1.3-3,3
		s1.3,3,3,3s3-1.3,3-3S-14.9,388.2-16.6,388.2z"/>
</g>
<g>
	<rect x="-26.5" y="394" class="st0" width="8.7" height="1"/>
</g>
<g>
	<rect x="-25.5" y="387.2" class="st0" width="8.9" height="1"/>
</g>
<g>
	<path class="st0" d="M-7,384.3l-1.4-1.4l0,0c-1.1-1-2.6-2.4-3.9-3.1l-0.3-0.2l0.1-0.4c0.3-1,0.8-2.7,1.6-3c4-1,7.3-0.5,9.1,1.3
		c1,1,1.4,2.2,1.2,3.4c-0.5,2.2-4.1,3.7-6.2,3.3L-7,384.3z M-6.7,383.2c1.8,0.3,4.8-1,5.1-2.5c0.2-0.9-0.2-1.8-0.9-2.5
		c-0.8-0.7-3.1-2.3-8.2-1c-0.2,0.1-0.6,1-0.8,1.9C-10.2,379.9-7.5,382.2-6.7,383.2z"/>
</g>
<g>
	<rect x="-109.6" y="426.1" class="st0" width="95.5" height="1"/>
</g>
<g>
	<path class="st0" d="M-29.9,420.2h-68.9c-1.3,0-2.5,0.6-3.4,1.6l-1.7,2.2c-0.8,1-0.1,2.6,1.3,2.6h76.7c1.4,0,2.1-1.6,1.2-2.6
		l-1.9-2.2C-27.4,420.8-28.6,420.2-29.9,420.2z"/>
</g>
<g>
	<path class="st0" d="M-19.8,424l-1.9-2.2c-0.1-0.2-0.3-0.3-0.5-0.5c0-0.1-0.1-0.1-0.2-0.2l-1.9-2.2c-0.8-1-2-1.5-3.3-1.5h-68.8
		c-1.3,0-2.5,0.6-3.4,1.6l-1.7,2.2c-0.8,1-0.1,2.6,1.3,2.6h1.5l-0.2,0.3c-0.8,1-0.1,2.6,1.3,2.6H-21C-19.7,426.6-18.9,425-19.8,424z
		"/>
</g>
<g>
	<g>
		<path class="st0" d="M-36.3,363.5h-0.3c-4.5,0-8.5,2.9-9.8,7.2l-1.9,6h23.6l-1.8-6C-27.7,366.5-31.7,363.5-36.3,363.5z"/>
		<path class="st0" d="M-24,377.2h-25l2.1-6.7c1.4-4.5,5.5-7.5,10.3-7.5h0.3c4.8,0,9,3.1,10.3,7.6L-24,377.2z M-47.6,376.2h22.2
			l-1.6-5.4c-1.2-4-5-6.8-9.3-6.8h-0.3c-4.3,0-8.1,2.8-9.3,6.8L-47.6,376.2z"/>
	</g>
</g>
<g>
	<g>
		<path class="st0" d="M-85.8,363.5h-0.3c-4.5,0-8.5,2.9-9.8,7.2l-1.9,6h23.6l-1.8-6C-77.3,366.5-81.3,363.5-85.8,363.5z"/>
		<path class="st0" d="M-73.5,377.2h-25l2.1-6.7c1.4-4.5,5.5-7.5,10.3-7.5h0.3c4.7,0,8.9,3.1,10.3,7.6L-73.5,377.2z M-97.1,376.2
			h22.2l-1.6-5.4c-1.2-4-5.1-6.8-9.3-6.8h-0.3c-4.3,0-8.1,2.8-9.3,6.8L-97.1,376.2z"/>
	</g>
</g>
<g>
	<path class="st0" d="M-5.2,404.3h-113.4c-2.9,0-5.1-2.3-5.1-5.3h1c0,2.5,1.8,4.3,4.1,4.3H-5.2c2.4,0,4.2-1.8,4.2-4.3h1
		C0,402-2.2,404.3-5.2,404.3z"/>
</g>
<g>
	<polygon class="st0" points="-106.7,426.6 -7.5,426.6 -7.9,433.9 -107.1,433.9 	"/>
</g>
<g>
	<circle class="st1" cx="-28.8" cy="390.6" r="2.8"/>
</g>
<g>
	<circle class="st1" cx="-94.9" cy="390.6" r="2.8"/>
</g>
<g>
	<circle class="st3" cx="-61.8" cy="399.9" r="5.1"/>
</g>
<g>
	<path class="st3" d="M-53.3,351.3c0-4.7-3.8-8.5-8.5-8.5s-8.5,3.8-8.5,8.5c0,0.5,0.1,1.1,0.2,1.6l3.3,33.7c0,2.8,2.3,5.1,5.1,5.1
		c2.8,0,5.1-2.3,5.1-5.1l3.3-33.7C-53.4,352.4-53.3,351.9-53.3,351.3z"/>
</g>
<g>
	<path class="st0" d="M-5.6,386.4c0.5,1,1.3,6.6,1.6,8.1c0.3,1.8-1.3-7.4-0.2-7.2C-4.2,387.3-5.7,386-5.6,386.4z"/>
</g>
<g>
	<path class="st0" d="M-118.1,386.4c-0.5,1-1.3,6.6-1.6,8.1c-0.3,1.8,1.3-7.4,0.2-7.2C-119.5,387.3-117.9,386-118.1,386.4z"/>
</g>
</svg>
