<?xml version="1.0" encoding="utf-8"?>
<!-- Generator: Adobe Illustrator 19.1.1, SVG Export Plug-In . SVG Version: 6.00 Build 0)  -->
<svg version="1.1" id="Layer_1" xmlns="http://www.w3.org/2000/svg" xmlns:xlink="http://www.w3.org/1999/xlink" x="0px" y="0px"
	 viewBox="0 0 229.5 173.6" style="enable-background:new 0 0 229.5 173.6;" xml:space="preserve">
<style type="text/css">
	.st0{fill:#252525;}
	.st1{fill:#FFFFFF;}
	.st2{fill:#FFFFFF;stroke:#010101;stroke-width:0.3402;stroke-miterlimit:10;}
	.st3{fill:#161212;stroke:#252525;stroke-width:0.5669;stroke-miterlimit:10;}
	.st4{fill:#161212;}
	.st5{fill:none;stroke:#161212;stroke-width:8.5039;stroke-miterlimit:10;}
	.st6{fill:#020202;}
	.st7{fill:#EA2534;}
	.st8{fill:none;stroke:#252525;stroke-width:1.5591;stroke-linecap:round;stroke-miterlimit:10;}
	.st9{fill:#020202;stroke:#252525;stroke-miterlimit:10;}
	.st10{fill:none;stroke:#EA2534;stroke-width:1.5591;stroke-miterlimit:10;}
	.st11{clip-path:url(#SVGID_3_);fill:#EA2534;}
	.st12{clip-path:url(#SVGID_5_);fill:#EA2534;}
	.st13{clip-path:url(#SVGID_7_);fill:#252525;}
	.st14{clip-path:url(#SVGID_9_);fill:#252525;}
	.st15{clip-path:url(#SVGID_11_);fill:#252525;}
	.st16{clip-path:url(#SVGID_13_);fill:#252525;}
	.st17{clip-path:url(#SVGID_15_);fill:#EA2534;}
	.st18{clip-path:url(#SVGID_17_);fill:#EA2534;}
	.st19{clip-path:url(#SVGID_19_);fill:#EA2534;}
	.st20{fill:none;stroke:#252525;stroke-miterlimit:10;}
	.st21{fill:#FFFFFF;stroke:#252525;stroke-width:1.5591;stroke-linecap:round;stroke-miterlimit:10;}
	.st22{fill:#FFFFFF;stroke:#252525;stroke-miterlimit:10;}
	.st23{fill:none;stroke:#010101;stroke-miterlimit:10;}
	.st24{fill:#EA2534;stroke:#252525;stroke-miterlimit:10;}
	.st25{fill:#252525;stroke:#252525;stroke-miterlimit:10;}
	.st26{fill:none;stroke:#252525;stroke-width:1.0006;stroke-miterlimit:10;}
	.st27{fill:#CDCCCC;}
	.st28{fill:#010101;}
	.st29{fill:none;}
	.st30{fill:#EB2133;}
	.st31{fill:#FFFFFF;stroke:#252525;stroke-width:1.0006;stroke-miterlimit:10;}
	.st32{fill:none;stroke:#010101;stroke-width:1.0006;stroke-miterlimit:10;}
	.st33{fill:#EA2534;stroke:#252525;stroke-width:1.0006;stroke-miterlimit:10;}
</style>
<rect x="28.5" y="74.7" class="st1" width="21" height="36.8"/>
<rect x="54.8" y="74.7" class="st1" width="21" height="36.8"/>
<rect x="81.1" y="74.7" class="st1" width="21" height="36.8"/>
<rect x="107.4" y="74.7" class="st1" width="21" height="36.8"/>
<rect x="133.7" y="74.7" class="st1" width="21" height="36.8"/>
<rect x="160" y="74.7" class="st1" width="21" height="36.8"/>
<rect x="28.5" y="74.7" class="st27" width="152.5" height="6.6"/>
<path class="st28" d="M31.4,98.2c0-0.3,0.4-0.6,0.7-0.8c6.9-4.8,8.7-9.3,9.4-11.3c0.4-1.2,0.7-2.1,0.7-3.1c0-2.2-1.5-3.5-3.8-3.5
	c-2,0-4,1-5,2.6c-0.1,0.1-0.1,0.1-0.2,0.1c-0.1,0-0.2,0-0.3-0.1l-1.2-1.5c-0.1-0.1-0.1-0.1-0.1-0.2s0-0.2,0.1-0.2
	c1.8-2,4.2-3.4,7.4-3.4c3.8,0,6.4,2.1,6.4,5.8c0,1.3-0.3,2.4-0.7,4c-0.5,2.3-3.8,7.4-6.6,9.7c-0.7,0.5-1.3,0.9-1.3,1.1
	c0,0.1,0.1,0.2,0.2,0.2h0.1l1.3-0.2h7.9c0.2,0,0.3,0.1,0.3,0.3v2.1c0,0.2-0.1,0.3-0.3,0.3H31.9c-0.3,0-0.5-0.1-0.5-0.3V98.2z"/>
<path class="st28" d="M59.1,97.7c0.1-0.2,0.2-0.3,0.4-0.2c1.1,0.5,2.5,0.8,4.2,0.8c2.4,0,4.2-1,5-2.6c0.3-0.6,0.4-1.1,0.4-1.8
	c0-3.1-2.3-4.2-5.5-4.2h-2.3c-0.2,0-0.3-0.1-0.3-0.3v-0.7c0-0.2,0-0.3,0.1-0.4l4.7-6.4c0.1-0.1,0.2-0.2,0.3-0.3l1-0.8
	c0.3-0.2,0.2-0.4-0.2-0.4l-1.7,0.2h-6.5c-0.2,0-0.3-0.1-0.3-0.3v-2.1c0-0.2,0.1-0.3,0.3-0.3H71c0.2,0,0.3,0.1,0.3,0.3v0.7
	c0,0.2,0,0.3-0.1,0.4l-5.2,7c-0.1,0.1-0.2,0.2-0.3,0.3l-0.9,0.7c-0.1,0.1-0.2,0.1-0.2,0.2c0,0,0.1,0,0.4,0l0.7-0.1
	c0.1,0,0.3,0,0.4,0c2.9,0.1,4.9,1.6,5.8,3.7c0.3,0.8,0.5,1.7,0.5,2.6c0,2.6-1.1,4.3-2.5,5.5c-1.5,1.2-3.5,1.9-6.1,1.9
	c-1.9,0-3.6-0.3-4.9-0.8c-0.2-0.1-0.3-0.2-0.2-0.4L59.1,97.7z"/>
<path class="st28" d="M94.5,85.8c0.1-0.1,0.1-0.2,0.2-0.3l1-1c0.2-0.2,0.1-0.4-0.2-0.4l-1.3,0.2c-0.1,0-0.3,0-0.4,0h-9.4
	c-0.2,0-0.3-0.1-0.3-0.3v-2.2c0-0.2,0.1-0.3,0.3-0.3h14.4c0.2,0,0.3,0.1,0.3,0.3v0.4c0,0.1,0,0.3-0.1,0.4L89,104
	c-0.1,0.2-0.2,0.2-0.4,0.2h-2.4c-0.3,0-0.4-0.2-0.2-0.4L94.5,85.8z"/>
<path class="st28" d="M110.8,110.4c0.1-0.2,0.2-0.3,0.4-0.2c1.1,0.5,2.5,0.8,4.2,0.8c2.4,0,4.2-1,5-2.6c0.3-0.6,0.4-1.1,0.4-1.8
	c0-3.1-2.3-4.2-5.5-4.2H113c-0.2,0-0.3-0.1-0.3-0.3v-0.7c0-0.2,0-0.3,0.1-0.4l4.7-6.4c0.1-0.1,0.2-0.2,0.3-0.3l1-0.8
	c0.3-0.2,0.2-0.4-0.2-0.4l-1.7,0.2h-6.5c-0.2,0-0.3-0.1-0.3-0.3v-2.1c0-0.2,0.1-0.3,0.3-0.3h12.2c0.2,0,0.3,0.1,0.3,0.3v0.7
	c0,0.2,0,0.3-0.1,0.4l-5.2,7c-0.1,0.1-0.2,0.2-0.3,0.3l-0.9,0.7c-0.1,0.1-0.2,0.1-0.2,0.2c0,0,0.1,0,0.4,0l0.7-0.1
	c0.1,0,0.3,0,0.4,0c2.9,0.1,4.9,1.6,5.8,3.7c0.3,0.8,0.5,1.7,0.5,2.6c0,2.6-1.1,4.3-2.5,5.5c-1.5,1.2-3.5,1.9-6.1,1.9
	c-1.9,0-3.6-0.3-4.9-0.8c-0.2-0.1-0.3-0.2-0.2-0.4L110.8,110.4z"/>
<path class="st28" d="M139.4,104.9c-0.1-0.2,0-0.3,0.3-0.4c3.9-0.6,6.5-2.7,8-5.6c0.4-0.8,0.7-1.6,0.9-2.5c0.1-0.3-0.2-0.5-0.4-0.2
	c-1,0.8-2.3,1.3-4.3,1.3c-3.3,0-5.8-1.4-6.9-3.8c-0.4-0.8-0.6-1.8-0.6-2.9c0-3.5,1.8-5.8,4.4-6.8c1-0.4,2.1-0.6,3.4-0.6
	c3.9,0,6.2,2,7.3,4.8c0.4,1,0.6,2.2,0.6,3.4c0,4.8-1.3,8.6-3.5,11.1c-1.9,2.2-4.7,3.8-8.3,4.2h-0.1c-0.2,0-0.3-0.1-0.3-0.3
	L139.4,104.9z M149,91.8c0-2.5-1-4.4-2.7-5.3c-0.6-0.3-1.4-0.5-2.2-0.5c-2.9,0-4.5,1.7-4.5,4.6s2,4.4,4.8,4.4c2,0,3.7-0.7,4.5-1.7
	c0.1-0.1,0.1-0.2,0.2-0.4c0-0.2,0-0.3,0-0.5V91.8z"/>
<path class="st28" d="M164.8,101.2c0.1-0.2,0.2-0.3,0.4-0.2c1.1,0.5,2.5,0.8,4.2,0.8c2.4,0,4.2-1,5-2.6c0.3-0.6,0.4-1.1,0.4-1.8
	c0-3.1-2.3-4.2-5.5-4.2h-2.3c-0.2,0-0.3-0.1-0.3-0.3v-0.7c0-0.2,0-0.3,0.1-0.4l4.7-6.4c0.1-0.1,0.2-0.2,0.3-0.3l1-0.8
	c0.3-0.2,0.2-0.4-0.2-0.4L171,84h-6.5c-0.2,0-0.3-0.1-0.3-0.3v-2.1c0-0.2,0.1-0.3,0.3-0.3h12.2c0.2,0,0.3,0.1,0.3,0.3v0.7
	c0,0.2,0,0.3-0.1,0.4l-5.2,7c-0.1,0.1-0.2,0.2-0.3,0.3l-0.9,0.7c-0.1,0.1-0.2,0.1-0.2,0.2c0,0,0.1,0,0.4,0l0.7-0.1
	c0.1,0,0.3,0,0.4,0c2.9,0.1,4.9,1.6,5.8,3.7c0.3,0.8,0.5,1.7,0.5,2.6c0,2.6-1.1,4.3-2.5,5.5c-1.5,1.2-3.5,1.9-6.1,1.9
	c-1.9,0-3.6-0.3-4.9-0.8c-0.2-0.1-0.3-0.2-0.2-0.4L164.8,101.2z"/>
<g>
	<path class="st29" d="M114.2,73.9l-1.4,1c-0.1,0.1-0.1,0.1-0.1,0.2c0,0.1,0,0.1,0.1,0.1c0,0,0.1,0,0.1,0l2-0.2h5.2
		c0.4,0,0.4-0.1,0.4-0.5v-2.1h-5.3L114.2,73.9z"/>
	<path class="st28" d="M120.5,72.3v2.1c0,0.4-0.1,0.5-0.4,0.5h-5.2l-2,0.2c-0.1,0-0.1,0-0.1,0c-0.1,0-0.1,0-0.1-0.1
		c0-0.1,0-0.1,0.1-0.2l1.4-1l1-1.6h-3.6l-1.9,3c-0.2,0.3-0.3,0.5-0.3,0.8v1c0,0.3,0.1,0.5,0.5,0.5h10.2c0.4,0,0.4,0.1,0.4,0.5v6
		c0,0.2,0.2,0.4,0.4,0.4h2.2c0.3,0,0.4-0.2,0.4-0.4v-6c0-0.4,0.2-0.5,0.6-0.5h2.7c0.3,0,0.4-0.2,0.4-0.5v-1.6c0-0.3-0.2-0.5-0.5-0.5
		h-2.6c-0.5,0-0.6-0.1-0.6-0.6v-2.1H120.5z"/>
</g>
<g>
	<path class="st29" d="M38.2,114.1l0.2-1v-0.1c0-0.1,0-0.2-0.1-0.2c-0.1,0-0.1,0-0.2,0.1l-0.8,0.9c-0.1,0.1-0.2,0.2-0.3,0.3
		l-1.1,0.8h2.3v-0.3C38.2,114.3,38.2,114.2,38.2,114.1z"/>
	<path class="st28" d="M37,114c0.1-0.1,0.2-0.1,0.3-0.3l0.8-0.9c0.1-0.1,0.2-0.1,0.2-0.1c0.1,0,0.1,0.1,0.1,0.2v0.1l-0.2,1
		c0,0.1,0,0.3,0,0.4v0.3h3v-5.5c0-0.2-0.1-0.3-0.3-0.3H40c-0.2,0-0.3,0-0.4,0.1l-7.4,5.3c-0.1,0.1-0.1,0.2-0.1,0.3c0,0,0,0.1,0,0.1
		h3.8L37,114z"/>
	<path class="st28" d="M71.7,112.8c0-3.7-2.6-5.8-6.4-5.8c-3.2,0-5.6,1.5-7.4,3.4c-0.1,0.1-0.1,0.2-0.1,0.2s0,0.1,0.1,0.2l1.2,1.5
		c0.1,0.1,0.2,0.1,0.3,0.1c0.1,0,0.1,0,0.2-0.1c1.1-1.6,3.1-2.6,5-2.6c2.4,0,3.8,1.3,3.8,3.5c0,0.5-0.1,1-0.2,1.5h3.2
		C71.6,114.1,71.7,113.5,71.7,112.8z"/>
	<path class="st28" d="M90.1,114.1c1.5-1.6,3.5-2.9,6-3.3c0.2-0.1,0.3-0.2,0.3-0.4l-0.5-1.9c0-0.2-0.1-0.3-0.3-0.3h-0.1
		c-3.6,0.5-6.4,2.4-8.3,4.8c-0.4,0.5-0.8,1-1.1,1.6h3.3C89.7,114.5,89.9,114.3,90.1,114.1z"/>
</g>
<path class="st0" d="M182,71.4H27.5c-1.9,0-3.4,1.5-3.4,3.4v36.5c0,1.9,1.5,3.4,3.4,3.4H182c1.9,0,3.4-1.5,3.4-3.4V74.8
	C185.5,72.9,183.9,71.4,182,71.4z M49.6,111.5h-21V74.7h21V111.5z M75.9,111.5h-21V74.7h21V111.5z M102.1,111.5h-21V74.7h21V111.5z
	 M128.4,111.5h-21V74.7h21V111.5z M154.7,111.5h-21V74.7h21V111.5z M181,111.5h-21V74.7h21V111.5z"/>
<g>
	<path class="st30" d="M206.2,81.7l-6.7-6.7c-1.4-1.4-3.6-1.4-5,0l-44.5,44.5c-1.4,1.4-3.6,1.4-5,0l-4.7-4.7h-17.5l-0.5,0.5
		c-1.4,1.4-1.4,3.6,0,5l22.7,22.7c1.4,1.4,3.6,1.4,5,0l56.3-56.3C207.6,85.3,207.6,83.1,206.2,81.7z"/>
</g>
</svg>
