<?xml version="1.0" encoding="utf-8"?>
<!-- Generator: Adobe Illustrator 19.1.1, SVG Export Plug-In . SVG Version: 6.00 Build 0)  -->
<svg version="1.1" id="Layer_1" xmlns="http://www.w3.org/2000/svg" xmlns:xlink="http://www.w3.org/1999/xlink" x="0px" y="0px"
	 viewBox="-151 310.4 308.9 173.6" style="enable-background:new -151 310.4 308.9 173.6;" xml:space="preserve">
<style type="text/css">
	.st0{fill:none;}
	.st1{fill:#252525;}
	.st2{fill:#FFFFFF;}
	.st3{fill:#010101;}
	.st4{fill:#EA2534;}
</style>
<g>
	<line class="st0" x1="-120.1" y1="461.4" x2="-151" y2="461.4"/>
</g>
<g>
	<rect x="-123.1" y="368.3" class="st1" width="10" height="0.6"/>
</g>
<g>
	<rect x="-123.1" y="393.3" class="st1" width="10" height="0.6"/>
</g>
<g>
	<rect x="-123.1" y="418.3" class="st1" width="10" height="0.6"/>
</g>
<g>
	<rect x="-123.1" y="443.3" class="st1" width="10" height="0.6"/>
</g>
<g>
	<rect x="-108" y="448.5" class="st1" width="0.6" height="10"/>
</g>
<g>
	<rect x="-83" y="448.5" class="st1" width="0.6" height="10"/>
</g>
<g>
	<rect x="-58" y="448.5" class="st1" width="0.6" height="10"/>
</g>
<g>
	<rect x="-33" y="448.5" class="st1" width="0.6" height="10"/>
</g>
<g>
	<rect x="-7.7" y="448.5" class="st1" width="0.6" height="10"/>
</g>
<g>
	<rect x="17.3" y="448.5" class="st1" width="0.6" height="10"/>
</g>
<g>
	<rect x="42.3" y="448.5" class="st1" width="0.6" height="10"/>
</g>
<g>
	<rect x="67.6" y="448.5" class="st1" width="0.6" height="10"/>
</g>
<g>
	<rect x="92.6" y="448.5" class="st1" width="0.6" height="10"/>
</g>
<g>
	<rect x="117.6" y="448.5" class="st1" width="0.6" height="10"/>
</g>
<g>
	<rect x="-107.4" y="448" class="st1" width="225.5" height="1"/>
</g>
<g>
	<rect x="-113.6" y="368.3" class="st1" width="1" height="75"/>
</g>
<g>
	<path class="st1" d="M115.1,412.5c0-1.5-2.9-3-4.2-3.6c0.1-2.2,0.5-13.9-3.1-16.3l-0.1-0.1l-36.4-3.4c-1.8-1.2-20.5-13.6-27.9-16
		c-10.4-3.5-34.4-4.4-45-1.6c-8.9,2.3-31,17.4-33.1,18.9c-2.8,0-34.4,0.3-41.9,3.8c-0.8,0.1-8.6,1.5-14.3,3.2
		c-9.1,2.8-13.7,7.5-13.8,7.7c-0.2,0.1-4.6,3.4-4.7,7.5c-0.1,2.4,1.7,6.8,3.6,11.1c1.8,3.6,4.6,6.5,8.2,8.2l4.8,2.3l41.2-0.4h97.4
		l40.9,0.4c3.4-1,6.5-1.7,9.3-2.4C109.9,428.4,115.6,427,115.1,412.5z"/>
	<g>
		<circle class="st1" cx="-73.3" cy="423.7" r="20.4"/>
	</g>
	<g>
		<circle class="st1" cx="65.9" cy="423.7" r="20.4"/>
	</g>
	<g>
		<circle class="st2" cx="-73.3" cy="423.7" r="13.2"/>
	</g>
	<g>
		<circle class="st2" cx="65.9" cy="423.7" r="13.2"/>
		<path class="st3" d="M65.9,437.1c-7.4,0-13.4-6-13.4-13.4s6-13.4,13.4-13.4s13.4,6,13.4,13.4S73.3,437.1,65.9,437.1z M65.9,410.7
			c-7.2,0-13,5.8-13,13s5.8,13,13,13s13-5.8,13-13S73.1,410.7,65.9,410.7z"/>
	</g>
	<path class="st2" d="M110.2,409.7l-0.3-0.1l0-0.3c0.2-3.7,0.2-13.6-2.6-15.7l-36.4-3.4l-0.1-0.1c-0.2-0.1-20.3-13.5-27.8-15.9
		c-10.3-3.5-33.9-4.3-44.4-1.6c-9,2.4-32.7,18.7-32.9,18.8l-0.1,0.1l-0.2,0c-0.3,0-34.4,0.2-41.7,3.8l-0.1,0
		c-0.1,0-8.3,1.4-14.2,3.2c-8.9,2.7-13.4,7.4-13.5,7.5c-0.1,0.1-4.3,3.2-4.4,6.8c-0.1,2.5,2.4,8,3.6,10.7c1.7,3.4,4.3,6.1,7.8,7.8
		l3.2,1.5c-0.3-3.3-0.6-14.6,5.6-21.4c3.2-3.6,7.8-5.4,13.5-5.3c22.4,0.4,24.1,23.3,24.3,27h95.2c-0.4-2.7-1.4-13.5,4.7-20.7
		c3.6-4.2,9-6.3,16-6.3c0.3,0,0.6,0,0.8,0c6.8,0.2,12.1,2.2,15.6,6c5.8,6.3,5.4,15.8,5.2,19.9c0,0.5-0.1,1.1,0,1.4
		c3.3-0.9,6.2-1.6,8.8-2.3c13.7-3.3,18.8-4.6,18.3-18.3C114.1,411.9,112.1,410.6,110.2,409.7z"/>
	<path class="st4" d="M114.3,412.9c0-1.3-4.2-3.5-4.2-3.5s0-0.4,0.1-1.3c0,0.4-0.4,0.6-0.9,0.9c-1.5,0.8-5.6,0.7-5.6,0.7
		c-1.3,0-2.7-0.7-3.5-1.7l-12.9,0.3l-11.4,0.3l11.4-0.3l-11.9,0.3c14.8,6.1,10.5,24.8,11.5,24.5
		C107.5,428.1,114.5,428.4,114.3,412.9z M99.3,417.4c0,0.6-0.5,1-1,1l-6.9-0.2c-0.6,0-1-0.5-1-1v-0.5c0-0.6,0.5-1,1-1l6.9,0.2
		c0.6,0,1,0.5,1,1V417.4z"/>
	<path class="st4" d="M110.3,408.4l-0.2-7.6c0-1.6-6.5-0.9-6.5-0.9c-1.9,0.3-3.7,1.9-3.7,3.8l-0.1,2.2c-0.1,2.2,2.1,4,4.3,4
		C104.1,409.8,110.3,409.9,110.3,408.4z"/>
	<path class="st4" d="M49.8,390.9c-2.5,0.1-4.7-1.6-5.3-4.1l-2.2-9.8c-0.2-0.7,0.1-1.4,0.6-1.9l1.2-1c-0.3-0.1-0.6-0.2-0.9-0.3
		c-10.6-3.5-34.4-4.2-44.7-1.6c-0.5,0.1-1,0.3-1.5,0.5l-0.7,0.2h-0.1c0.8,0.7,1.4,1.7,0.5,2.3c0,0-25.8,17.3-28.6,18.4
		c1.1,0.4,2.7,0.8,4.9,1.1c0,0,19.7-16.2,27.7-18.5c6.1-1.7,22.4,0,29.5,0.9c1.9,0.2,3.2,1.9,3,3.8l-1.2,14
		c21-0.9,37.6-2.5,39.3-5.1c0,0-0.9-0.6-2.3-1.5C67.3,390.1,56.1,390.7,49.8,390.9z"/>
	<g>
		<path class="st1" d="M71.6,389.4c0,0-0.9-0.6-2.3-1.5l-0.3-0.2l-0.3,0.3c-1.1,1.2-8.2,2.1-18.9,2.4h0c-2.3,0.1-4.2-1.4-4.8-3.7
			l-2.2-9.8c-0.1-0.5,0-1,0.4-1.4l1.9-1.6l-1.8-0.6C33,369.9,9,369-1.6,371.7c-0.5,0.1-1.1,0.3-1.5,0.5l-0.7,0.2h-1.3l1,0.9
			c0.5,0.4,0.8,0.9,0.8,1.2c0,0.1,0,0.2-0.2,0.3c-0.3,0.2-25.1,16.8-28.4,18.3c-1.7-0.7-2.1-1.5-2.1-1.8l-0.3,0c0,0,0-0.1,0-0.1
			s-0.1,0-0.4,0l-0.3-0.1c0,0,0,0,0,0.1c-4.9,0.1-34.4,0.5-41.2,3.8c0,0-8.3,1.4-14.3,3.2c-3.2,1-5.8,2.2-7.9,3.3
			c-0.9-0.1-1.7,0.3-1.7,0.4l0.4,0.8c0.1-0.1,0.9-0.4,1.7-0.1c0.5,0.2,0.8,0.7,1,1.5c0.4,1.7-0.6,3.5-1.5,3.9
			c-2.1,1.1-5.3,2.1-6,1.3c-1-1.2,0.1-3.1,1-3.9l-0.6-0.7c-1.5,1.4-2.4,3.6-1.2,5.2c0.4,0.5,1,0.7,1.7,0.7c2.2,0,5.5-1.7,5.5-1.7
			c0.3-0.1,0.7-0.4,1-0.8h0h14.9c2.1-0.8,4.6-1.3,7.5-1.2c24,0.4,23.8,27,23.8,27h19.7v-5.7c1.9,0,11,0.1,21.2,0.1
			c12.8,0,27.2-0.1,31.4-0.6c11.7-1.3,13.7-14.3,14-19.8c0.3-4.8-0.4-10.4-1.8-12.6c14.5-0.6,29.7-1.8,35.6-3.8
			c2-0.7,2.4-1.2,2.6-1.5l0.3-0.4L71.6,389.4z M3.3,395.2c-1.9,0-3.8,0-5.7,0.1c-8.1,0.1-15.7,0.2-23.6-0.8
			c3.6-2.9,19.8-15.8,26.8-17.8c5.1-1.4,18.5-0.5,29.3,0.9c1.6,0.2,2.7,1.6,2.6,3.3l-1.2,13.7C23.1,394.9,13.6,395.1,3.3,395.2z
			 M-3,375.6c0.5-0.3,0.6-0.8,0.7-1.1c0-0.5-0.2-1-0.5-1.4l0,0c0.5-0.2,1-0.4,1.4-0.5c10.5-2.6,34.2-1.8,44.4,1.6l0,0l-0.5,0.5
			c-0.7,0.7-1,1.6-0.7,2.4l2.2,9.8c0.7,2.7,3.1,4.6,5.8,4.5c10.8-0.3,17.3-1.2,19.2-2.5c0.6,0.4,1.1,0.7,1.5,1
			c-1.7,1.3-9.4,3.2-38,4.5l1.2-13.4c0.2-2.2-1.3-4.1-3.4-4.3c-3.7-0.5-13.7-1.6-21.5-1.6c-3.3,0-6.2,0.2-8.2,0.7
			c-7.7,2.2-25.6,16.8-27.7,18.5c-1.3-0.2-2.5-0.4-3.4-0.7C-24.9,390.3-4,376.2-3,375.6z M-48.1,411.9c-1,0-1.8-0.9-1.8-1.9
			s0.9-1.8,1.9-1.8s1.8,0.9,1.8,1.9S-47.1,411.9-48.1,411.9z M34.3,408c-0.3,5.2-2.1,17.6-13.1,18.8c-7.7,0.9-52.3,0.5-52.7,0.5
			c-2.3,0-4.3-1.7-4.6-3.9l-1.1-17.2c0.2-6.8,3.2-10.5,8.9-11.1c0.5,0.1,0.9,0.2,1.5,0.2c5.6,0.8,11,1,16.5,1c2.6,0,5.3,0,8-0.1
			c1.9,0,3.7-0.1,5.7-0.1c4.5,0,16.3-0.2,29-0.7C33.3,396.2,34.7,401.3,34.3,408z"/>
		<path class="st1" d="M-97.3,413.8l-4.6-0.1c-1,0-1.8,0.7-1.8,1.7v0.2c0,1,0.7,1.8,1.7,1.8l4.6,0.1h0c0.9,0,1.7-0.7,1.8-1.7v-0.2
			C-95.6,414.6-96.3,413.8-97.3,413.8z M-97.4,416.5l-4.6-0.1c-0.4,0-0.7-0.4-0.7-0.8v-0.2c0-0.4,0.4-0.7,0.8-0.7l4.6,0.1
			c0.4,0,0.7,0.4,0.7,0.8l0,0.1C-96.7,416.2-97.1,416.5-97.4,416.5z"/>
	</g>
	<path class="st1" d="M110.6,400.8c0-0.3-0.1-0.6-0.4-0.8c-1.2-1.1-5.8-0.7-6.7-0.6c-2,0.3-4.1,2-4.1,4.3l-0.1,2.2
		c0,0.6,0.1,1.1,0.3,1.6l-26.1,0.6l2.2,0.9c0,0,0.1,0,0.1,0l3.3-0.1l21.1-0.5c0.1,0.1,0.2,0.2,0.3,0.3c0.9,1,2.3,1.6,3.6,1.6h0.5
		l0,0c0.1,0,0.1,0,0.2,0c3.6-0.2,6-0.6,6-1.9L110.6,400.8z M104.8,409.3c-0.3,0-0.5,0-0.7,0.1c-1.1,0-2.1-0.5-2.9-1.3
		c0,0,0-0.1-0.1-0.1l-0.4-0.6c-0.3-0.5-0.4-1-0.4-1.6l0.1-2.2c0-1.7,1.7-3.1,3.3-3.3c0.8-0.1,1.8-0.1,2.7-0.1c1.5,0,2.8,0.1,3.3,0.6
		l0.2,7.6C109.8,408.5,109.6,409.1,104.8,409.3z"/>
	<path class="st1" d="M91.4,418.8l6.9,0.2c0.8,0,1.5-0.7,1.5-1.5V417c0-0.8-0.7-1.5-1.5-1.5l-6.9-0.2c-0.8,0-1.5,0.7-1.5,1.5v0.5
		C89.9,418.1,90.6,418.8,91.4,418.8z M90.9,416.8c0-0.3,0.3-0.5,0.5-0.5l6.9,0.2c0.3,0,0.5,0.3,0.5,0.5v0.5c0,0.3-0.3,0.5-0.5,0.5
		l-6.9-0.2c-0.3,0-0.5-0.3-0.5-0.5V416.8z"/>
</g>
</svg>
