<?xml version="1.0" encoding="utf-8"?>
<!-- Generator: Adobe Illustrator 19.1.1, SVG Export Plug-In . SVG Version: 6.00 Build 0)  -->
<svg version="1.1" id="Layer_1" xmlns="http://www.w3.org/2000/svg" xmlns:xlink="http://www.w3.org/1999/xlink" x="0px" y="0px"
	 viewBox="-316.1 383.4 27.1 27.8" style="enable-background:new -316.1 383.4 27.1 27.8;" xml:space="preserve">
<style type="text/css">
	.st0{fill:#FFFFFF;}
</style>
<g>
	<path class="st0" d="M-301.8,399.9c0,3.8-3.1,6.9-6.9,6.9h-0.9c-0.5,0-0.9-0.4-0.9-0.9v-1.7c0-0.5,0.4-0.9,0.9-0.9h0.9
		c1.9,0,3.4-1.5,3.4-3.4v-0.4c0-0.7-0.6-1.3-1.3-1.3h-3c-1.4,0-2.6-1.2-2.6-2.6v-5.1c0-1.4,1.2-2.6,2.6-2.6h5.1
		c1.4,0,2.6,1.2,2.6,2.6L-301.8,399.9L-301.8,399.9z M-289.8,399.9c0,3.8-3.1,6.9-6.9,6.9h-0.9c-0.5,0-0.9-0.4-0.9-0.9v-1.7
		c0-0.5,0.4-0.9,0.9-0.9h0.9c1.9,0,3.4-1.5,3.4-3.4v-0.4c0-0.7-0.6-1.3-1.3-1.3h-3c-1.4,0-2.6-1.2-2.6-2.6v-5.1
		c0-1.4,1.2-2.6,2.6-2.6h5.1c1.4,0,2.6,1.2,2.6,2.6L-289.8,399.9L-289.8,399.9z"/>
</g>
</svg>
