<?xml version="1.0" encoding="utf-8"?>
<!-- Generator: Adobe Illustrator 19.1.1, SVG Export Plug-In . SVG Version: 6.00 Build 0)  -->
<svg version="1.1" id="Layer_1" xmlns="http://www.w3.org/2000/svg" xmlns:xlink="http://www.w3.org/1999/xlink" x="0px" y="0px"
	 viewBox="0 0 113.5 15.8" style="enable-background:new 0 0 113.5 15.8;" xml:space="preserve">
<style type="text/css">
	.st0{fill:#FFFFFF;}
	.st1{fill:#EC1D32;}
</style>
<g>
	<path class="st0" d="M7.2,7.4H2.8v4.9H0V0.2h8.1v2.2H2.8v2.9h4.4V7.4z"/>
	<path class="st0" d="M12.5,12.3H9.7V0.2h2.8V12.3z"/>
	<path class="st0" d="M24.6,12.3h-2.8l-4.4-7.6l0,0v7.6h-2.8V0.2h2.8l4.4,7.6l0,0V0.2h2.8V12.3z"/>
	<path class="st0" d="M26.6,12.3V0.2H31c1.4,0,2.6,0.5,3.6,1.4c1,0.9,1.4,2.1,1.4,3.6v2.2c0,1.5-0.5,2.6-1.4,3.6s-2.1,1.4-3.6,1.4
		H26.6z M29.4,2.3v7.8H31c0.6,0,1.2-0.3,1.6-0.8c0.4-0.5,0.6-1.2,0.6-2V5.1c0-0.8-0.2-1.5-0.6-2c-0.4-0.5-0.9-0.8-1.6-0.8H29.4z"/>
	<path class="st0" d="M41.7,5.5L41.7,5.5l2.5-5.3h3L43.1,8v4.3h-2.8V7.9l-4-7.7h3L41.7,5.5z"/>
	<path class="st0" d="M58,7.3c0,1.5-0.5,2.7-1.4,3.7c-0.9,1-2.2,1.4-3.7,1.4c-1.5,0-2.8-0.5-3.7-1.4c-1-1-1.4-2.2-1.4-3.7V5.1
		c0-1.5,0.5-2.7,1.4-3.7c0.9-1,2.2-1.5,3.7-1.5c1.5,0,2.8,0.5,3.7,1.5S58,3.6,58,5.1V7.3z M55.2,5.1c0-0.9-0.2-1.6-0.6-2.1
		c-0.4-0.6-1-0.8-1.7-0.8c-0.8,0-1.3,0.3-1.7,0.8c-0.4,0.6-0.6,1.3-0.6,2.1v2.2c0,0.9,0.2,1.6,0.6,2.1c0.4,0.6,1,0.8,1.7,0.8
		c0.7,0,1.3-0.3,1.7-0.8s0.6-1.3,0.6-2.1V5.1z"/>
	<path class="st0" d="M69.6,0.2V8c0,1.4-0.5,2.5-1.4,3.3c-0.9,0.8-2.1,1.2-3.6,1.2c-1.5,0-2.7-0.4-3.6-1.2c-0.9-0.8-1.4-1.9-1.4-3.3
		V0.2h2.8V8c0,0.7,0.2,1.3,0.6,1.7s0.9,0.6,1.6,0.6c0.7,0,1.2-0.2,1.6-0.6c0.4-0.4,0.6-0.9,0.6-1.7V0.2H69.6z"/>
	<path class="st0" d="M74.2,7.6v4.6h-2.8V0.2h4.2c1.4,0,2.5,0.3,3.3,1s1.2,1.5,1.2,2.7c0,0.6-0.2,1.2-0.5,1.6
		c-0.3,0.4-0.8,0.8-1.5,1.1c0.7,0.2,1.3,0.6,1.6,1.1c0.3,0.5,0.5,1.1,0.5,1.8v0.8c0,0.3,0,0.7,0.1,1.1s0.3,0.7,0.5,0.9v0.2h-2.9
		c-0.2-0.2-0.4-0.5-0.4-0.9s-0.1-0.8-0.1-1.2V9.4c0-0.6-0.2-1-0.5-1.3s-0.8-0.5-1.3-0.5H74.2z M74.2,5.5h1.4c0.6,0,1-0.1,1.3-0.4
		c0.3-0.3,0.4-0.6,0.4-1.1c0-0.5-0.2-0.9-0.5-1.2c-0.3-0.3-0.7-0.5-1.3-0.5h-1.4V5.5z"/>
	<path class="st0" d="M91.6,8.2L91.6,8.2c0,1.4-0.4,2.5-1.1,3.2c-0.8,0.7-1.9,1.1-3.4,1.1c-1.5,0-2.7-0.5-3.6-1.4
		c-0.9-0.9-1.4-2.1-1.4-3.6V5c0-1.5,0.4-2.7,1.3-3.6c0.9-0.9,2-1.4,3.5-1.4c1.5,0,2.7,0.4,3.6,1.1c0.8,0.7,1.2,1.8,1.2,3.1l0,0h-2.7
		c0-0.7-0.2-1.3-0.5-1.6s-0.8-0.5-1.6-0.5c-0.6,0-1.1,0.3-1.5,0.8c-0.3,0.5-0.5,1.2-0.5,2v2.5c0,0.8,0.2,1.5,0.6,2s0.9,0.8,1.6,0.8
		c0.6,0,1.1-0.2,1.4-0.5c0.3-0.3,0.4-0.9,0.4-1.6H91.6z"/>
	<path class="st0" d="M99.5,9.9h-3.6l-0.7,2.3h-3l3.9-12.1h1.5v0l0,0h1.5l4,12.1h-3L99.5,9.9z M96.5,7.8h2.3L97.7,4h-0.1L96.5,7.8z"
		/>
	<path class="st0" d="M106.8,7.6v4.6H104V0.2h4.2c1.4,0,2.5,0.3,3.3,1s1.2,1.5,1.2,2.7c0,0.6-0.2,1.2-0.5,1.6s-0.8,0.8-1.5,1.1
		c0.7,0.2,1.3,0.6,1.6,1.1c0.3,0.5,0.5,1.1,0.5,1.8v0.8c0,0.3,0,0.7,0.1,1.1c0.1,0.4,0.3,0.7,0.5,0.9v0.2h-2.9
		c-0.2-0.2-0.4-0.5-0.4-0.9s-0.1-0.8-0.1-1.2V9.4c0-0.6-0.2-1-0.5-1.3s-0.8-0.5-1.3-0.5H106.8z M106.8,5.5h1.4c0.6,0,1-0.1,1.3-0.4
		c0.3-0.3,0.4-0.6,0.4-1.1c0-0.5-0.2-0.9-0.5-1.2c-0.3-0.3-0.7-0.5-1.3-0.5h-1.4V5.5z"/>
</g>
<rect y="13.8" class="st1" width="113.5" height="2"/>
</svg>
