<?xml version="1.0" encoding="UTF-8" standalone="no"?>
<svg width="24px" height="42px" viewBox="0 0 24 42" version="1.1" xmlns="http://www.w3.org/2000/svg" xmlns:xlink="http://www.w3.org/1999/xlink" xmlns:sketch="http://www.bohemiancoding.com/sketch/ns">
    <!-- Generator: Sketch 3.5.2 (25235) - http://www.bohemiancoding.com/sketch -->
    <title>Mouse</title>
    <desc>Created with Sketch.</desc>
    <defs></defs>
    <g id="Welcome" stroke="none" stroke-width="1" fill="none" fill-rule="evenodd" sketch:type="MSPage">
        <g id="Desktop-HD" sketch:type="MSArtboardGroup" transform="translate(-708.000000, -595.000000)" fill-opacity="0.3" fill="#B5B5B5">
            <g id="Обложка" sketch:type="MSLayerGroup">
                <path d="M708.016818,615.997349 C708.016818,612.968622 707.972408,609.928594 708.027921,606.899868 C708.138946,601.294463 711.980421,596.547951 717.354046,595.304817 C724.304229,593.688742 731.165593,598.683881 731.89836,605.90536 C731.953872,606.470421 731.98718,607.035482 731.98718,607.589242 C731.998282,613.273755 732.009385,618.96957 731.98718,624.654083 C731.964975,628.835534 730.299595,632.203298 726.991041,634.678265 C719.87432,640.023742 709.482352,635.627567 708.161151,626.710905 C708.050126,625.931121 708.027921,625.140036 708.016818,624.34895 C707.994613,621.56885 708.005716,618.78875 708.016818,615.997349 C708.005716,615.997349 708.016818,615.997349 708.016818,615.997349 Z M709.560157,616.031084 C709.560157,619.238619 709.448908,622.457488 709.582407,625.653689 C709.81603,631.241373 714.833363,635.797659 720.329067,635.570978 C726.047269,635.321629 730.497232,630.629335 730.508357,624.792301 C730.519482,618.977936 730.519482,613.163571 730.508357,607.337871 C730.497232,600.741457 724.901404,595.788479 718.504582,596.683869 C713.687498,597.352577 709.782655,601.546174 709.582407,606.453816 C709.448908,609.638683 709.560157,612.834883 709.560157,616.031084 Z M720.76317,609.240659 C720.774115,609.84331 720.434814,609.866489 720.018896,609.866489 C719.602978,609.866489 719.252732,609.854899 719.263677,609.252248 C719.274622,607.166149 719.274622,605.080049 719.263677,602.993949 C719.263677,602.391298 719.592033,602.35653 720.007951,602.368119 C720.423869,602.368119 720.774115,602.379709 720.76317,602.993949 C720.741279,604.02541 720.752225,605.068459 720.752225,606.111509 C720.752225,607.154559 720.741279,608.197609 720.76317,609.240659 Z" id="Mouse" sketch:type="MSShapeGroup"></path>
            </g>
        </g>
    </g>
</svg>